<svg xmlns="http://www.w3.org/2000/svg" xmlns:xlink="http://www.w3.org/1999/xlink" width="500" zoomAndPan="magnify" viewBox="0 0 375 374.999991" height="500" preserveAspectRatio="xMidYMid meet" version="1.0"><defs><g/><clipPath id="b669e073c1"><path d="M 28 120.207031 L 138 120.207031 L 138 254.898438 L 28 254.898438 Z M 28 120.207031 " clip-rule="nonzero"/></clipPath><clipPath id="aaf98aeb3a"><path d="M 56 160 L 118 160 L 118 240 L 56 240 Z M 56 160 " clip-rule="nonzero"/></clipPath><clipPath id="c7d6535759"><path d="M 61.066406 154.019531 L 133.066406 171.4375 L 116.382812 240.417969 L 44.378906 223.003906 Z M 61.066406 154.019531 " clip-rule="nonzero"/></clipPath><clipPath id="7a87d1c2b2"><path d="M 133.074219 171.4375 L 61.074219 154.023438 L 44.386719 223.003906 L 116.390625 240.421875 Z M 133.074219 171.4375 " clip-rule="nonzero"/></clipPath><clipPath id="c5a2585713"><path d="M 93 178 L 101.65625 178 L 101.65625 211.375 L 93 211.375 Z M 93 178 " clip-rule="nonzero"/></clipPath><clipPath id="4255ed227e"><path d="M 84 187 L 92 187 L 92 211.375 L 84 211.375 Z M 84 187 " clip-rule="nonzero"/></clipPath><clipPath id="7304519df2"><path d="M 77 171.488281 L 87 171.488281 L 87 211.375 L 77 211.375 Z M 77 171.488281 " clip-rule="nonzero"/></clipPath><clipPath id="f0ae38be8d"><path d="M 67.984375 180 L 77 180 L 77 211.375 L 67.984375 211.375 Z M 67.984375 180 " clip-rule="nonzero"/></clipPath></defs><rect x="-37.5" width="450" fill="none" y="-37.499999" height="449.999989" fill-opacity="1"/><rect x="-37.5" width="450" fill="none" y="-37.499999" height="449.999989" fill-opacity="1"/><g clip-path="url(#b669e073c1)"><path fill="#d4a056" d="M 136.414062 139.617188 C 136.414062 139.617188 96.21875 136.46875 83.109375 120.207031 C 70 136.46875 29.804688 139.617188 29.804688 139.617188 C 29.804688 139.617188 27.304688 181.078125 30.613281 194.214844 C 42.484375 241.648438 83.109375 254.785156 83.109375 254.785156 C 83.109375 254.785156 123.761719 241.621094 135.605469 194.214844 C 138.917969 181.078125 136.414062 139.617188 136.414062 139.617188 Z M 136.414062 139.617188 " fill-opacity="1" fill-rule="nonzero"/></g><path fill="#00141b" d="M 130.382812 192.921875 C 120.636719 231.929688 90.648438 246.0625 83.136719 249.050781 C 75.597656 246.0625 45.636719 231.929688 35.890625 192.921875 C 33.65625 183.957031 34.328125 158.140625 35.003906 144.519531 C 45.3125 143.226562 69.757812 139.105469 83.136719 127.855469 C 96.515625 139.105469 120.988281 143.226562 131.269531 144.519531 C 131.917969 158.140625 132.617188 183.957031 130.382812 192.921875 Z M 130.382812 192.921875 " fill-opacity="1" fill-rule="nonzero"/><path fill="#000000" d="M 130.382812 192.921875 C 120.636719 231.929688 90.648438 246.0625 83.136719 249.050781 L 83.136719 127.855469 C 96.515625 139.105469 120.988281 143.226562 131.269531 144.519531 C 131.917969 158.140625 132.617188 183.957031 130.382812 192.921875 Z M 130.382812 192.921875 " fill-opacity="1" fill-rule="nonzero"/><g clip-path="url(#aaf98aeb3a)"><g clip-path="url(#c7d6535759)"><g clip-path="url(#7a87d1c2b2)"><path fill="#d4a056" d="M 90.140625 161.0625 C 96.917969 162.703125 103.070312 166.925781 106.988281 173.347656 C 114.300781 185.324219 111.265625 200.707031 100.414062 209.085938 L 102.613281 212.691406 C 104.210938 212.816406 105.730469 213.664062 106.625 215.136719 L 116.519531 231.34375 C 118.003906 233.777344 117.238281 236.953125 114.804688 238.4375 C 113.585938 239.179688 112.183594 239.359375 110.898438 239.050781 C 109.617188 238.738281 108.449219 237.9375 107.707031 236.722656 L 97.816406 220.515625 C 96.917969 219.042969 96.855469 217.304688 97.472656 215.828125 L 95.273438 212.222656 C 89.515625 214.925781 83.191406 215.445312 77.328125 214.027344 C 70.554688 212.386719 64.402344 208.164062 60.480469 201.742188 C 52.640625 188.898438 56.695312 172.128906 69.539062 164.289062 C 75.960938 160.371094 83.363281 159.425781 90.140625 161.0625 Z M 65.621094 198.601562 C 68.574219 203.441406 73.234375 206.839844 78.746094 208.171875 C 84.257812 209.503906 89.953125 208.613281 94.792969 205.660156 C 99.632812 202.707031 103.03125 198.042969 104.363281 192.535156 C 105.695312 187.023438 104.804688 181.324219 101.851562 176.488281 C 98.894531 171.648438 94.234375 168.25 88.726562 166.917969 C 83.214844 165.585938 77.515625 166.476562 72.675781 169.429688 C 67.839844 172.382812 64.441406 177.046875 63.109375 182.554688 C 61.773438 188.066406 62.667969 193.765625 65.621094 198.601562 Z M 65.621094 198.601562 " fill-opacity="1" fill-rule="nonzero"/></g></g></g><g clip-path="url(#c5a2585713)"><path fill="#d4a056" d="M 94.230469 182.308594 C 94.230469 184.171875 95.621094 185.707031 97.421875 185.957031 L 97.421875 192.257812 L 93.527344 194.953125 C 93.382812 195.054688 93.320312 195.199219 93.320312 195.367188 L 93.320312 210.644531 C 93.320312 210.914062 93.546875 211.140625 93.816406 211.140625 C 94.085938 211.140625 94.3125 210.914062 94.3125 210.644531 L 94.3125 195.613281 L 98.210938 192.921875 C 98.355469 192.816406 98.417969 192.671875 98.417969 192.503906 L 98.417969 185.933594 C 100.222656 185.6875 101.609375 184.152344 101.609375 182.285156 C 101.609375 180.253906 99.953125 178.597656 97.921875 178.597656 C 95.890625 178.597656 94.230469 180.277344 94.230469 182.308594 Z M 100.59375 182.308594 C 100.59375 183.777344 99.394531 184.980469 97.921875 184.980469 C 96.449219 184.980469 95.246094 183.777344 95.246094 182.308594 C 95.246094 180.835938 96.449219 179.632812 97.921875 179.632812 C 99.394531 179.632812 100.59375 180.8125 100.59375 182.308594 Z M 100.59375 182.308594 " fill-opacity="1" fill-rule="nonzero"/></g><g clip-path="url(#4255ed227e)"><path fill="#d4a056" d="M 88.550781 210.644531 L 88.550781 194.746094 C 90.355469 194.496094 91.742188 192.960938 91.742188 191.097656 C 91.742188 189.066406 90.085938 187.40625 88.054688 187.40625 C 86.023438 187.40625 84.363281 189.066406 84.363281 191.097656 C 84.363281 192.960938 85.753906 194.496094 87.558594 194.746094 L 87.558594 210.644531 C 87.558594 210.914062 87.785156 211.140625 88.054688 211.140625 C 88.324219 211.140625 88.550781 210.914062 88.550781 210.644531 Z M 85.359375 191.097656 C 85.359375 189.625 86.5625 188.421875 88.035156 188.421875 C 89.503906 188.421875 90.726562 189.625 90.726562 191.097656 C 90.726562 192.566406 89.527344 193.769531 88.054688 193.769531 C 86.5625 193.769531 85.359375 192.566406 85.359375 191.097656 Z M 85.359375 191.097656 " fill-opacity="1" fill-rule="nonzero"/></g><g clip-path="url(#7304519df2)"><path fill="#d4a056" d="M 82.167969 210.644531 L 82.167969 196.777344 C 82.167969 196.609375 82.085938 196.445312 81.9375 196.339844 L 78.828125 194.390625 L 78.828125 185.851562 L 82.769531 183.738281 C 82.933594 183.652344 83.039062 183.488281 83.039062 183.300781 L 83.039062 178.824219 C 84.839844 178.574219 86.230469 177.042969 86.230469 175.175781 C 86.230469 173.144531 84.570312 171.488281 82.539062 171.488281 C 80.507812 171.488281 78.851562 173.144531 78.851562 175.175781 C 78.851562 177.042969 80.238281 178.574219 82.042969 178.824219 L 82.042969 182.992188 L 78.105469 185.105469 C 77.9375 185.1875 77.835938 185.355469 77.835938 185.539062 L 77.835938 194.660156 C 77.835938 194.828125 77.917969 194.992188 78.0625 195.097656 L 81.171875 197.046875 L 81.171875 210.621094 C 81.171875 210.890625 81.398438 211.121094 81.667969 211.121094 C 81.9375 211.140625 82.167969 210.914062 82.167969 210.644531 Z M 79.824219 175.175781 C 79.824219 173.703125 81.027344 172.503906 82.5 172.503906 C 83.972656 172.503906 85.171875 173.703125 85.171875 175.175781 C 85.171875 176.648438 83.972656 177.851562 82.5 177.851562 C 81.027344 177.871094 79.824219 176.667969 79.824219 175.175781 Z M 79.824219 175.175781 " fill-opacity="1" fill-rule="nonzero"/></g><g clip-path="url(#f0ae38be8d)"><path fill="#d4a056" d="M 76.300781 210.644531 L 76.300781 202.640625 C 76.300781 202.457031 76.199219 202.289062 76.050781 202.207031 L 72.03125 199.84375 L 72.03125 187.78125 C 73.835938 187.53125 75.222656 185.996094 75.222656 184.132812 C 75.222656 182.097656 73.566406 180.441406 71.535156 180.441406 C 69.503906 180.441406 67.84375 182.097656 67.84375 184.132812 C 67.84375 185.996094 69.234375 187.53125 71.035156 187.78125 L 71.035156 200.132812 C 71.035156 200.320312 71.140625 200.484375 71.285156 200.570312 L 75.304688 202.933594 L 75.304688 210.644531 C 75.304688 210.914062 75.535156 211.140625 75.804688 211.140625 C 76.074219 211.140625 76.300781 210.914062 76.300781 210.644531 Z M 68.839844 184.132812 C 68.839844 182.660156 70.039062 181.457031 71.511719 181.457031 C 72.984375 181.457031 74.1875 182.660156 74.1875 184.132812 C 74.1875 185.601562 72.984375 186.804688 71.511719 186.804688 C 70.039062 186.824219 68.839844 185.625 68.839844 184.132812 Z M 68.839844 184.132812 " fill-opacity="1" fill-rule="nonzero"/></g><path stroke-linecap="butt" transform="matrix(1.013659, 0, 0, 1.013659, 144.964361, 138.858389)" fill="none" stroke-linejoin="miter" d="M 46.925913 44.001517 L 38.952789 44.001517 L 38.902692 20.922233 L 30.386209 40.448487 L 24.505597 40.448487 L 15.989114 20.922233 L 15.989114 44.001517 L 7.927357 44.001517 L 7.927357 8.455798 L 17.808019 8.455798 L 27.45361 29.600568 L 37.083787 8.455798 L 46.925913 8.455798 Z M 67.558153 44.001517 L 58.532993 44.001517 L 58.532993 8.505895 L 67.558153 8.505895 Z M 95.743473 8.197606 C 98.387051 8.197606 100.980532 8.737111 103.531624 9.816123 C 106.082715 10.898988 108.252299 12.355653 110.044228 14.189973 L 104.81873 20.367313 C 103.674207 18.94533 102.294614 17.823929 100.683804 16.999256 C 99.084555 16.174583 97.485306 15.762247 95.893764 15.762247 C 93.096042 15.762247 90.749192 16.752625 88.849361 18.733382 C 86.957237 20.702577 86.013102 23.141914 86.013102 26.047538 C 86.013102 29.018673 86.957237 31.504253 88.849361 33.500424 C 90.749192 35.500449 93.096042 36.498534 95.893764 36.498534 C 97.388966 36.498534 98.934264 36.124734 100.537367 35.38484 C 102.144323 34.641093 103.574013 33.623739 104.81873 32.336633 L 110.094325 37.908956 C 108.171373 39.874298 105.897741 41.450426 103.273432 42.637338 C 100.656829 43.816544 98.047933 44.41 95.446745 44.41 C 90.097931 44.41 85.650863 42.668167 82.101686 39.184502 C 78.552509 35.700836 76.779847 31.353962 76.779847 26.147732 C 76.779847 21.045549 78.587191 16.7796 82.20188 13.346032 C 85.824275 9.912463 90.336855 8.197606 95.743473 8.197606 Z M 140.060014 44.001517 L 134.788273 34.009101 L 127.693772 34.009101 L 127.693772 44.001517 L 118.668612 44.001517 L 118.668612 8.505895 L 134.537788 8.505895 C 139.235341 8.505895 142.865444 9.577199 145.435803 11.723661 C 148.010016 13.870123 149.297123 16.91833 149.297123 20.872136 C 149.297123 26.351973 147.150661 30.159342 142.857737 32.286536 L 150.310623 44.001517 Z M 127.693772 26.9146 L 134.537788 26.9146 C 136.495423 26.9146 138.013746 26.425192 139.096611 25.442521 C 140.175622 24.459849 140.718982 23.04172 140.718982 21.184279 C 140.718982 19.357667 140.175622 17.97422 139.096611 17.022378 C 138.013746 16.074389 136.495423 15.600395 134.537788 15.600395 L 127.693772 15.600395 Z M 176.677038 8.197606 C 182.18385 8.197606 186.758087 9.912463 190.407458 13.346032 C 194.064536 16.7796 195.891148 21.064817 195.891148 26.197829 C 195.891148 31.37323 194.056829 35.700836 190.384337 39.184502 C 186.719551 42.668167 182.145314 44.41 176.665477 44.41 C 171.193348 44.41 166.626817 42.675875 162.973593 39.207624 C 159.324222 35.743226 157.501463 31.404059 157.501463 26.197829 C 157.501463 21.030135 159.324222 16.73721 162.973593 13.32291 C 166.626817 9.904756 171.197201 8.197606 176.677038 8.197606 Z M 176.777232 15.762247 C 174.002631 15.762247 171.632659 16.768039 169.671171 18.779625 C 167.713536 20.787357 166.734718 23.280644 166.734718 26.259486 C 166.734718 29.230621 167.721243 31.739323 169.694292 33.785591 C 171.675049 35.824152 174.037313 36.845359 176.777232 36.845359 C 179.51715 36.845359 181.840878 35.824152 183.748416 33.785591 C 185.652101 31.739323 186.607797 29.230621 186.607797 26.259486 C 186.607797 23.280644 185.652101 20.787357 183.748416 18.779625 C 181.840878 16.768039 179.51715 15.762247 176.777232 15.762247 Z M 176.777232 15.762247 " stroke="#303139" stroke-width="3.803917" stroke-opacity="1" stroke-miterlimit="4"/><path stroke-linecap="butt" transform="matrix(1.013659, 0, 0, 1.013659, 144.964361, 138.858389)" fill="none" stroke-linejoin="miter" d="M 17.368707 56.098006 C 22.675131 56.098006 27.338002 57.415941 31.35732 60.059519 L 27.966141 67.103923 C 26.100992 66.021058 24.104821 65.134727 21.973774 64.441077 C 19.842726 63.747426 18.05465 63.400601 16.601838 63.400601 C 14.00065 63.400601 12.701983 64.26381 12.701983 65.990229 C 12.701983 67.103923 13.341682 67.997961 14.621082 68.676196 C 15.908188 69.350579 17.472755 69.936328 19.310928 70.433444 C 21.152954 70.918999 22.991127 71.508601 24.833154 72.202252 C 26.682888 72.888195 28.247454 74.009596 29.526854 75.570309 C 30.81396 77.123315 31.457514 79.084803 31.457514 81.450921 C 31.457514 84.869075 30.12031 87.535775 27.445903 89.45102 C 24.779203 91.354705 21.384171 92.3104 17.256952 92.3104 C 14.316646 92.3104 11.414876 91.801724 8.540081 90.788224 C 5.66914 89.77087 3.168146 88.38357 1.037098 86.626322 L 4.528471 79.682113 C 6.320401 81.235119 8.43218 82.506811 10.867663 83.50875 C 13.303146 84.506836 15.468876 85.003952 17.368707 85.003952 C 18.821519 85.003952 19.950627 84.74576 20.759886 84.225522 C 21.569144 83.697577 21.973774 82.926855 21.973774 81.909501 C 21.973774 80.92683 21.507487 80.10601 20.574912 79.447043 C 19.650046 78.784221 18.493962 78.298666 17.106661 77.986524 C 15.723215 77.66282 14.216452 77.231216 12.590228 76.684003 C 10.971711 76.140643 9.468802 75.551041 8.081502 74.915195 C 6.698055 74.271641 5.538117 73.246581 4.605543 71.843866 C 3.680676 70.441151 3.218243 68.757122 3.218243 66.79178 C 3.218243 63.550892 4.509203 60.957411 7.091123 59.019044 C 9.676897 57.069116 13.102758 56.098006 17.368707 56.098006 Z M 67.966636 63.758987 L 57.269008 63.758987 L 57.269008 91.998258 L 48.243848 91.998258 L 48.243848 63.758987 L 37.646415 63.758987 L 37.646415 56.456392 L 67.966636 56.456392 Z M 99.855277 85.462531 L 84.344488 85.462531 L 81.754861 91.998258 L 72.48307 91.998258 L 87.797325 56.506489 L 97.069116 56.506489 L 112.024985 91.998258 L 102.394808 91.998258 Z M 97.219407 78.618516 L 92.15576 65.481552 L 86.980359 78.618516 Z M 158.78857 91.998258 L 150.815446 91.998258 L 150.765349 68.922828 L 142.245012 88.445227 L 136.3644 88.445227 L 127.847917 68.922828 L 127.847917 91.998258 L 119.790014 91.998258 L 119.790014 56.456392 L 129.666822 56.456392 L 139.312413 77.601162 L 148.94259 56.456392 L 158.78857 56.456392 Z M 170.391796 56.506489 L 185.856342 56.506489 C 190.384337 56.506489 193.902685 57.577793 196.403679 59.724255 C 198.904673 61.870717 200.153244 64.918925 200.153244 68.872731 C 200.153244 73.034632 198.904673 76.263959 196.403679 78.568419 C 193.902685 80.861318 190.384337 82.009695 185.856342 82.009695 L 179.416956 82.009695 L 179.416956 91.998258 L 170.391796 91.998258 Z M 179.416956 63.600989 L 179.416956 74.915195 L 185.397762 74.915195 C 187.393933 74.915195 188.931525 74.425786 190.01439 73.443115 C 191.097255 72.460444 191.636761 71.038461 191.636761 69.184873 C 191.636761 67.358261 191.097255 65.970961 190.01439 65.022972 C 188.931525 64.074983 187.393933 63.600989 185.397762 63.600989 Z M 179.416956 63.600989 " stroke="#303139" stroke-width="3.803917" stroke-opacity="1" stroke-miterlimit="4"/><g fill="#d4a056" fill-opacity="1"><g transform="translate(149.39912, 183.4594)"><g><path d="M 43.125 0 L 35.0625 0 L 35 -23.390625 L 26.375 -3.59375 L 20.40625 -3.59375 L 11.765625 -23.390625 L 11.765625 0 L 3.59375 0 L 3.59375 -36.03125 L 13.625 -36.03125 L 23.390625 -14.59375 L 33.15625 -36.03125 L 43.125 -36.03125 Z M 43.125 0 "/></g></g></g><g fill="#d4a056" fill-opacity="1"><g transform="translate(200.693358, 183.4594)"><g><path d="M 12.75 0 L 3.59375 0 L 3.59375 -35.984375 L 12.75 -35.984375 Z M 12.75 0 "/></g></g></g><g fill="#d4a056" fill-opacity="1"><g transform="translate(221.561391, 183.4594)"><g><path d="M 20.453125 -36.296875 C 23.128906 -36.296875 25.757812 -35.742188 28.34375 -34.640625 C 30.9375 -33.546875 33.140625 -32.078125 34.953125 -30.234375 L 29.65625 -23.953125 C 28.488281 -25.390625 27.09375 -26.53125 25.46875 -27.375 C 23.84375 -28.21875 22.222656 -28.640625 20.609375 -28.640625 C 17.765625 -28.640625 15.382812 -27.632812 13.46875 -25.625 C 11.550781 -23.625 10.59375 -21.148438 10.59375 -18.203125 C 10.59375 -15.179688 11.550781 -12.660156 13.46875 -10.640625 C 15.382812 -8.617188 17.765625 -7.609375 20.609375 -7.609375 C 22.117188 -7.609375 23.6875 -7.984375 25.3125 -8.734375 C 26.945312 -9.492188 28.394531 -10.523438 29.65625 -11.828125 L 35 -6.171875 C 33.050781 -4.179688 30.75 -2.585938 28.09375 -1.390625 C 25.4375 -0.191406 22.789062 0.40625 20.15625 0.40625 C 14.738281 0.40625 10.226562 -1.351562 6.625 -4.875 C 3.03125 -8.40625 1.234375 -12.8125 1.234375 -18.09375 C 1.234375 -23.269531 3.066406 -27.597656 6.734375 -31.078125 C 10.398438 -34.554688 14.972656 -36.296875 20.453125 -36.296875 Z M 20.453125 -36.296875 "/></g></g></g><g fill="#d4a056" fill-opacity="1"><g transform="translate(261.651396, 183.4594)"><g><path d="M 25.296875 0 L 19.953125 -10.125 L 12.75 -10.125 L 12.75 0 L 3.59375 0 L 3.59375 -35.984375 L 19.6875 -35.984375 C 24.445312 -35.984375 28.128906 -34.894531 30.734375 -32.71875 C 33.335938 -30.539062 34.640625 -27.445312 34.640625 -23.4375 C 34.640625 -17.882812 32.46875 -14.03125 28.125 -11.875 L 35.671875 0 Z M 12.75 -17.328125 L 19.6875 -17.328125 C 21.675781 -17.328125 23.21875 -17.820312 24.3125 -18.8125 C 25.40625 -19.8125 25.953125 -21.25 25.953125 -23.125 C 25.953125 -24.976562 25.40625 -26.382812 24.3125 -27.34375 C 23.21875 -28.300781 21.675781 -28.78125 19.6875 -28.78125 L 12.75 -28.78125 Z M 12.75 -17.328125 "/></g></g></g><g fill="#d4a056" fill-opacity="1"><g transform="translate(303.386061, 183.4594)"><g><path d="M 20.671875 -36.296875 C 26.253906 -36.296875 30.894531 -34.554688 34.59375 -31.078125 C 38.289062 -27.597656 40.140625 -23.253906 40.140625 -18.046875 C 40.140625 -12.796875 38.28125 -8.40625 34.5625 -4.875 C 30.851562 -1.351562 26.222656 0.40625 20.671875 0.40625 C 15.117188 0.40625 10.488281 -1.347656 6.78125 -4.859375 C 3.082031 -8.367188 1.234375 -12.765625 1.234375 -18.046875 C 1.234375 -23.285156 3.082031 -27.632812 6.78125 -31.09375 C 10.488281 -34.5625 15.117188 -36.296875 20.671875 -36.296875 Z M 20.765625 -28.640625 C 17.953125 -28.640625 15.550781 -27.617188 13.5625 -25.578125 C 11.582031 -23.535156 10.59375 -21.003906 10.59375 -17.984375 C 10.59375 -14.972656 11.59375 -12.429688 13.59375 -10.359375 C 15.601562 -8.285156 17.992188 -7.25 20.765625 -7.25 C 23.546875 -7.25 25.898438 -8.285156 27.828125 -10.359375 C 29.765625 -12.429688 30.734375 -14.972656 30.734375 -17.984375 C 30.734375 -21.003906 29.765625 -23.535156 27.828125 -25.578125 C 25.898438 -27.617188 23.546875 -28.640625 20.765625 -28.640625 Z M 20.765625 -28.640625 "/></g></g></g><g fill="#d4a056" fill-opacity="1"><g transform="translate(145.138583, 232.115047)"><g><path d="M 17.421875 -36.390625 C 22.804688 -36.390625 27.535156 -35.054688 31.609375 -32.390625 L 28.171875 -25.234375 C 26.285156 -26.335938 24.257812 -27.238281 22.09375 -27.9375 C 19.9375 -28.644531 18.125 -29 16.65625 -29 C 14.019531 -29 12.703125 -28.125 12.703125 -26.375 C 12.703125 -25.238281 13.351562 -24.328125 14.65625 -23.640625 C 15.957031 -22.960938 17.539062 -22.375 19.40625 -21.875 C 21.269531 -21.375 23.132812 -20.769531 25 -20.0625 C 26.875 -19.363281 28.460938 -18.226562 29.765625 -16.65625 C 31.066406 -15.082031 31.71875 -13.09375 31.71875 -10.6875 C 31.71875 -7.226562 30.363281 -4.53125 27.65625 -2.59375 C 24.945312 -0.65625 21.503906 0.3125 17.328125 0.3125 C 14.335938 0.3125 11.382812 -0.203125 8.46875 -1.234375 C 5.5625 -2.265625 3.03125 -3.671875 0.875 -5.453125 L 4.421875 -12.484375 C 6.234375 -10.910156 8.375 -9.617188 10.84375 -8.609375 C 13.3125 -7.597656 15.503906 -7.09375 17.421875 -7.09375 C 18.898438 -7.09375 20.050781 -7.359375 20.875 -7.890625 C 21.695312 -8.421875 22.109375 -9.203125 22.109375 -10.234375 C 22.109375 -11.222656 21.632812 -12.050781 20.6875 -12.71875 C 19.75 -13.382812 18.578125 -13.878906 17.171875 -14.203125 C 15.765625 -14.535156 14.238281 -14.972656 12.59375 -15.515625 C 10.945312 -16.066406 9.421875 -16.664062 8.015625 -17.3125 C 6.609375 -17.96875 5.429688 -19.003906 4.484375 -20.421875 C 3.546875 -21.847656 3.078125 -23.554688 3.078125 -25.546875 C 3.078125 -28.835938 4.390625 -31.46875 7.015625 -33.4375 C 9.640625 -35.40625 13.109375 -36.390625 17.421875 -36.390625 Z M 17.421875 -36.390625 "/></g></g></g><g fill="#d4a056" fill-opacity="1"><g transform="translate(182.761598, 232.115047)"><g><path d="M 31.09375 -28.640625 L 20.25 -28.640625 L 20.25 0 L 11.109375 0 L 11.109375 -28.640625 L 0.359375 -28.640625 L 0.359375 -36.03125 L 31.09375 -36.03125 Z M 31.09375 -28.640625 "/></g></g></g><g fill="#d4a056" fill-opacity="1"><g transform="translate(218.688556, 232.115047)"><g><path d="M 27.5 -6.625 L 11.765625 -6.625 L 9.15625 0 L -0.25 0 L 15.265625 -35.984375 L 24.671875 -35.984375 L 39.84375 0 L 30.078125 0 Z M 24.828125 -13.578125 L 19.6875 -26.890625 L 14.4375 -13.578125 Z M 24.828125 -13.578125 "/></g></g></g><g fill="#d4a056" fill-opacity="1"><g transform="translate(262.787416, 232.115047)"><g><path d="M 43.125 0 L 35.0625 0 L 35 -23.390625 L 26.375 -3.59375 L 20.40625 -3.59375 L 11.765625 -23.390625 L 11.765625 0 L 3.59375 0 L 3.59375 -36.03125 L 13.625 -36.03125 L 23.390625 -14.59375 L 33.15625 -36.03125 L 43.125 -36.03125 Z M 43.125 0 "/></g></g></g><g fill="#d4a056" fill-opacity="1"><g transform="translate(314.081654, 232.115047)"><g><path d="M 3.59375 -35.984375 L 19.28125 -35.984375 C 23.875 -35.984375 27.4375 -34.894531 29.96875 -32.71875 C 32.507812 -30.539062 33.78125 -27.445312 33.78125 -23.4375 C 33.78125 -19.226562 32.507812 -15.957031 29.96875 -13.625 C 27.4375 -11.289062 23.875 -10.125 19.28125 -10.125 L 12.75 -10.125 L 12.75 0 L 3.59375 0 Z M 12.75 -28.78125 L 12.75 -17.328125 L 18.8125 -17.328125 C 20.832031 -17.328125 22.390625 -17.820312 23.484375 -18.8125 C 24.585938 -19.8125 25.140625 -21.25 25.140625 -23.125 C 25.140625 -24.976562 24.585938 -26.382812 23.484375 -27.34375 C 22.390625 -28.300781 20.832031 -28.78125 18.8125 -28.78125 Z M 12.75 -28.78125 "/></g></g></g></svg>